<?xml version="1.0" encoding="UTF-8" standalone="no"?>
<svg version="1.1" xmlns="http://www.w3.org/2000/svg"
     width="1200" height="1087" viewBox="0 0 1200 1087"
     preserveAspectRatio="xMidYMid meet">
  <g fill="#ffffff" stroke="none">
    <!-- Bondspire Logo - White Version for Dark Backgrounds -->
    <path d="M7268 10353 c7 -3 16 -2 19 1 4 3 -2 6 -13 5 -11 0 -14 -3 -6 -6z"/>
    <path d="M7220 10323 c61 -8 59 -23 -3 -23 -44 0 -57 -3 -57 -15 0 -8 -4 -15 -9 -15 -5 0 -12 -12 -16 -27 -3 -15 -11 -30 -16 -34 -6 -3 -6 -15 0 -32 6 -15 7 -27 2 -27 -5 0 -11 6 -14 13 -2 6 -7 -9 -11 -34 -4 -25 -4 -53 0 -62 3 -10 1 -17 -5 -17 -6 0 -11 10 -12 23 -1 21 -1 21 -9 -3 -4 -14 -8 -32 -9 -40 -1 -12 1 -12 8 -1 6 9 11 10 15 2 7 -10 2 -13 -34 -15 -8 -1 -16 -9 -18 -18 -3 -14 1 -16 15 -11 17 7 17 6 0 -12 -15 -14 -21 -15 -27 -5 -6 9 -10 7 -15 -10 -9 -28 -37 -56 -65 -65 -17 -5 -19 -9 -9 -16 7 -4 11 -9 9 -11 -3 -2 -19 -13 -37 -26 -18 -12 -36 -22 -42 -22 -5 0 -11 -4 -13 -10 -1 -5 -23 -11 -48 -14 -37 -4 -40 -4 -15 4 22 6 14 7 -30 3 -33 -3 -67 -9 -76 -14 -9 -5 -18 -6 -21 -4 -2 3 -17 -9 -33 -25 -16 -17 -24 -30 -17 -30 6 0 16 9 22 20 6 12 21 20 35 20 14 0 25 5 25 10 0 6 16 10 35 10 53 0 42 -16 -17 -23 -33 -4 -60 -14 -75 -29 -13 -13 -32 -23 -41 -23 -27 0 -29 -76 -2 -100 20 -18 21 -18 14 0 -7 18 -6 18 16 2 14 -9 35 -17 47 -17 13 0 23 -4 23 -9 0 -5 23 -11 50 -15 28 -4 50 -11 50 -16 0 -6 9 -10 20 -10 24 0 100 -39 100 -51 0 -5 6 -9 13 -9 18 0 112 -98 113 -118 3 -55 4 -56 16 -44 10 10 10 15 -2 23 -13 9 -13 10 0 6 12 -3 15 -20 14 -77 0 -56 2 -68 9 -47 10 30 19 34 36 13 10 -12 8 -13 -8 -9 -14 4 -21 1 -21 -10 0 -8 12 -18 26 -21 19 -5 24 -11 19 -26 -9 -30 15 -142 30 -136 7 2 25 -2 40 -10 32 -16 72 -18 77 -4 2 6 20 11 41 12 40 1 42 4 27 42 -6 17 -6 26 0 26 6 0 10 -8 11 -17 0 -14 2 -15 6 -3 3 8 10 18 15 21 5 3 4 18 -2 33 -9 24 -8 27 5 22 9 -3 15 0 15 9 0 9 4 23 9 33 22 40 41 86 41 99 0 15 -16 18 -23 3 -3 -6 -4 -5 -3 2 2 7 11 13 20 13 10 0 22 9 28 19 9 16 8 18 -5 13 -11 -4 -14 -2 -10 9 3 8 12 13 20 10 9 -4 17 1 20 14 3 11 11 20 19 20 7 0 26 12 41 26 33 31 141 84 171 84 11 0 23 4 26 9 4 5 24 12 46 16 22 4 40 11 40 16 0 5 6 9 13 9 7 0 28 17 47 37 30 31 32 36 13 31 -15 -4 -20 -2 -16 8 2 7 11 10 19 7 8 -3 14 1 14 11 0 9 -8 16 -20 16 -11 0 -20 5 -20 11 0 5 4 8 8 5 4 -2 14 -1 22 5 13 7 12 9 -2 9 -10 0 -18 7 -18 15 0 11 -11 14 -41 13 -22 -1 -44 3 -47 9 -4 6 -28 13 -54 17 -50 8 -66 26 -22 26 14 0 23 -4 20 -9 -3 -5 13 -11 36 -14 22 -3 44 -10 47 -15 4 -6 11 -5 18 3 9 10 6 13 -14 13 -14 0 -29 5 -33 12 -4 7 -15 10 -23 7 -8 -3 -19 -1 -25 5 -6 6 -35 11 -66 12 -31 0 -56 4 -56 8 0 3 -14 10 -32 13 -30 7 -31 8 -13 21 10 8 14 14 8 14 -6 0 -20 3 -30 6 -15 5 -16 4 -3 -6 13 -10 13 -11 0 -7 -8 2 -15 12 -15 22 0 10 -7 21 -15 23 -8 3 -18 10 -22 16 -5 8 -8 7 -8 -2 0 -7 10 -17 23 -22 12 -5 15 -9 7 -9 -27 -1 -45 18 -45 46 0 21 -5 28 -19 28 -11 0 -21 7 -23 15 -4 13 -3 13 6 0 20 -28 13 12 -8 47 -11 17 -23 48 -27 67 -3 20 -10 36 -15 36 -5 0 -9 11 -9 25 0 14 -5 25 -11 25 -6 0 -8 9 -4 20 3 11 2 20 -4 20 -5 0 -12 14 -16 30 -6 28 -14 34 -41 31 -18 -2 -26 29 -9 35 33 13 12 21 -52 21 -38 0 -52 -2 -33 -4z"/>
    <!-- Additional paths with complex logo details converted to white -->
    <path d="M5160 9799 c-47 -6 -45 -6 19 -3 65 2 71 1 49 -10 -13 -7 -57 -16 -98 -19 -40 -3 -76 -10 -79 -15 -3 -5 -19 -12 -36 -16 -16 -4 -32 -11 -35 -16 -3 -5 -16 -10 -30 -13 -14 -2 -19 -2 -12 0 6 3 12 8 12 13 0 5 14 11 30 15 17 4 28 10 25 15 -3 5 -18 2 -33 -6 -15 -7 -33 -14 -39 -14 -12 0 -17 -12 -14 -36 1 -6 -9 -16 -21 -23 -54 -28 -69 -39 -100 -73 -19 -19 -38 -33 -44 -31 -7 2 -14 -3 -17 -12 -4 -8 -1 -15 5 -15 7 0 6 -5 -2 -15 -7 -8 -18 -15 -24 -15 -6 0 -4 5 4 10 8 5 10 10 5 10 -21 0 -72 -79 -67 -102 1 -5 -2 -8 -7 -8 -9 0 -24 -38 -22 -57 1 -6 -3 -14 -9 -18 -6 -4 -9 -36 -7 -83 3 -42 2 -56 0 -29 -2 26 -9 47 -15 47 -6 0 -8 -9 -4 -22 3 -13 6 -43 6 -68 0 -35 3 -42 11 -30 9 12 10 11 4 -5 -12 -34 -33 -140 -29 -144 2 -2 4 1 4 8 0 7 5 9 10 6 6 -3 10 -15 10 -26 0 -10 6 -19 14 -19 13 0 26 -20 26 -41 0 -5 -7 -9 -15 -9 -8 0 -15 -7 -15 -15 0 -18 27 -20 33 -2 2 6 8 8 13 4 5 -4 2 -12 -6 -17 -13 -8 -12 -10 3 -10 9 0 17 -5 17 -10 0 -7 -7 -7 -21 0 -11 6 -25 9 -32 6 -7 -2 -5 -5 5 -5 9 -1 18 -6 20 -12 2 -6 15 -12 28 -13 13 0 26 -8 28 -16 5 -13 3 -13 -11 -1 -15 12 -17 11 -17 -3 0 -9 4 -16 10 -16 5 0 13 -12 16 -26 5 -19 9 -22 15 -13 5 8 3 16 -4 21 -6 4 -8 10 -4 14 11 11 21 -4 23 -34 3 -57 3 -57 16 -44 10 10 10 15 -2 23 -13 9 -13 10 0 6 8 -2 14 -14 13 -25 -2 -14 2 -20 11 -16 7 3 16 -2 19 -10 4 -9 11 -16 17 -16 6 0 16 -4 23 -10 63 -52 99 -79 109 -83 10 -4 10 -7 0 -15 -17 -12 7 -23 46 -21 27 2 27 2 -3 9 -27 7 -26 7 9 5 21 -2 42 -9 46 -16 4 -6 13 -8 20 -4 7 4 16 2 20 -5 10 -16 277 -20 301 -5 8 5 24 8 37 6 12 -1 22 2 22 7 0 6 14 13 30 17 17 4 30 10 30 15 0 5 21 13 48 19 26 5 58 15 72 20 23 10 22 11 -10 6 -19 -3 -28 -2 -20 2 18 8 32 20 74 61 36 35 49 40 40 17 -3 -8 -15 -17 -26 -21 -11 -3 -17 -9 -13 -12 3 -3 -5 -12 -17 -19 -13 -7 -17 -12 -10 -13 19 0 119 103 104 108 -23 7 -12 22 18 22 22 0 30 5 31 18 0 14 2 14 9 -3 6 -14 8 -1 6 38 -1 31 2 57 6 57 4 0 8 -6 9 -12 0 -7 4 -2 10 10 5 13 7 37 4 53 -3 16 -1 29 4 29 5 0 12 8 15 18 2 9 3 -1 0 -23 -3 -32 -2 -35 5 -15 5 14 9 37 10 53 1 15 6 27 11 27 6 0 10 45 10 116 0 69 -4 113 -9 109 -6 -3 -7 -35 -5 -73 3 -37 1 -85 -4 -107 -8 -31 -10 -2 -9 127 0 92 -3 171 -7 175 -5 5 -7 -13 -5 -39 3 -34 1 -44 -7 -37 -7 5 -12 26 -12 47 1 70 -1 77 -14 64 -10 -10 -10 -15 2 -23 12 -8 12 -10 1 -7 -10 3 -15 20 -16 51 -2 47 -15 80 -15 39 0 -12 -5 -22 -10 -22 -6 0 -10 6 -9 13 3 25 -2 36 -18 40 -17 4 -17 5 0 6 9 0 17 4 17 7 0 12 -43 44 -59 45 -12 0 -11 3 4 9 17 6 14 9 -18 15 -20 4 -40 11 -43 17 -3 5 6 6 23 3 15 -3 21 -2 13 1 -8 4 -34 26 -58 50 -23 24 -49 44 -57 44 -7 0 -15 6 -18 13 -3 9 -7 9 -17 1 -9 -9 -5 -14 20 -19 24 -5 29 -10 21 -18 -8 -8 -14 -8 -19 -2 -10 14 -96 55 -115 55 -8 0 -17 5 -19 10 -2 6 -43 13 -91 17 -100 7 -118 23 -25 23 34 0 59 2 57 4 -9 7 -157 11 -209 5z"/>
  </g>
</svg>